<mxfile host="app.diagrams.net" agent="Mozilla/5.0 (Windows NT 10.0; Win64; x64) AppleWebKit/537.36 (KHTML, like Gecko) Chrome/129.0.0.0 Safari/537.36" version="24.8.3">
  <diagram id="C5RBs43oDa-KdzZeNtuy" name="Page-1">
    <mxGraphModel dx="1481" dy="829" grid="0" gridSize="10" guides="1" tooltips="1" connect="1" arrows="1" fold="1" page="1" pageScale="1" pageWidth="827" pageHeight="1169" background="#F0EEEE" math="0" shadow="0">
      <root>
        <mxCell id="WIyWlLk6GJQsqaUBKTNV-0" />
        <mxCell id="WIyWlLk6GJQsqaUBKTNV-1" parent="WIyWlLk6GJQsqaUBKTNV-0" />
        <mxCell id="WIyWlLk6GJQsqaUBKTNV-2" value="" style="rounded=0;html=1;jettySize=auto;orthogonalLoop=1;fontSize=11;endArrow=block;endFill=0;endSize=8;strokeWidth=1;shadow=0;labelBackgroundColor=none;edgeStyle=orthogonalEdgeStyle;strokeColor=#A8201A;fontColor=default;" parent="WIyWlLk6GJQsqaUBKTNV-1" target="WIyWlLk6GJQsqaUBKTNV-6" edge="1">
          <mxGeometry relative="1" as="geometry">
            <mxPoint x="189" y="162" as="sourcePoint" />
          </mxGeometry>
        </mxCell>
        <mxCell id="WIyWlLk6GJQsqaUBKTNV-4" value="No" style="rounded=0;html=1;jettySize=auto;orthogonalLoop=1;fontSize=11;endArrow=block;endFill=0;endSize=8;strokeWidth=1;shadow=0;labelBackgroundColor=none;edgeStyle=orthogonalEdgeStyle;strokeColor=#A8201A;fontColor=default;entryX=0.5;entryY=0;entryDx=0;entryDy=0;" parent="WIyWlLk6GJQsqaUBKTNV-1" source="WIyWlLk6GJQsqaUBKTNV-6" target="TZ29FF8xOcTStTQaKNd6-0" edge="1">
          <mxGeometry x="-0.24" y="14" relative="1" as="geometry">
            <mxPoint as="offset" />
            <mxPoint x="189" y="376" as="targetPoint" />
          </mxGeometry>
        </mxCell>
        <mxCell id="WIyWlLk6GJQsqaUBKTNV-5" value="Yes" style="edgeStyle=orthogonalEdgeStyle;rounded=0;html=1;jettySize=auto;orthogonalLoop=1;fontSize=11;endArrow=block;endFill=0;endSize=8;strokeWidth=1;shadow=0;labelBackgroundColor=none;strokeColor=#A8201A;fontColor=default;entryX=0.004;entryY=0.451;entryDx=0;entryDy=0;entryPerimeter=0;" parent="WIyWlLk6GJQsqaUBKTNV-1" source="WIyWlLk6GJQsqaUBKTNV-6" edge="1" target="TZ29FF8xOcTStTQaKNd6-4">
          <mxGeometry x="-0.1207" y="12" relative="1" as="geometry">
            <mxPoint as="offset" />
            <mxPoint x="349" y="257" as="targetPoint" />
          </mxGeometry>
        </mxCell>
        <mxCell id="WIyWlLk6GJQsqaUBKTNV-6" value="Does the data need transformed?" style="rhombus;whiteSpace=wrap;html=1;shadow=0;fontFamily=Helvetica;fontSize=12;align=center;strokeWidth=1;spacing=6;spacingTop=-4;labelBackgroundColor=none;fillColor=#FAE5C7;strokeColor=#0F8B8D;fontColor=#143642;" parent="WIyWlLk6GJQsqaUBKTNV-1" vertex="1">
          <mxGeometry x="119" y="192" width="140" height="130" as="geometry" />
        </mxCell>
        <mxCell id="WIyWlLk6GJQsqaUBKTNV-8" value="No" style="rounded=0;html=1;jettySize=auto;orthogonalLoop=1;fontSize=11;endArrow=block;endFill=0;endSize=8;strokeWidth=1;shadow=0;labelBackgroundColor=none;edgeStyle=orthogonalEdgeStyle;strokeColor=#A8201A;fontColor=default;" parent="WIyWlLk6GJQsqaUBKTNV-1" source="TZ29FF8xOcTStTQaKNd6-0" edge="1">
          <mxGeometry x="-0.2474" y="14" relative="1" as="geometry">
            <mxPoint as="offset" />
            <mxPoint x="189" y="456" as="sourcePoint" />
            <mxPoint x="189" y="552" as="targetPoint" />
          </mxGeometry>
        </mxCell>
        <mxCell id="KbSVwYgE71Qf3zuXXJ_C-0" value="Input data" style="shape=parallelogram;perimeter=parallelogramPerimeter;whiteSpace=wrap;html=1;fixedSize=1;labelBackgroundColor=none;fillColor=#FAE5C7;strokeColor=#0F8B8D;fontColor=#143642;" parent="WIyWlLk6GJQsqaUBKTNV-1" vertex="1">
          <mxGeometry x="129" y="102" width="120" height="60" as="geometry" />
        </mxCell>
        <mxCell id="TZ29FF8xOcTStTQaKNd6-0" value="Does the data need cleaned?" style="rhombus;whiteSpace=wrap;html=1;shadow=0;fontFamily=Helvetica;fontSize=12;align=center;strokeWidth=1;spacing=6;spacingTop=-4;labelBackgroundColor=none;fillColor=#FAE5C7;strokeColor=#0F8B8D;fontColor=#143642;" parent="WIyWlLk6GJQsqaUBKTNV-1" vertex="1">
          <mxGeometry x="119" y="372" width="140" height="130" as="geometry" />
        </mxCell>
        <mxCell id="TZ29FF8xOcTStTQaKNd6-2" value="Does the data need reduced?" style="rhombus;whiteSpace=wrap;html=1;shadow=0;fontFamily=Helvetica;fontSize=12;align=center;strokeWidth=1;spacing=6;spacingTop=-4;labelBackgroundColor=none;fillColor=#FAE5C7;strokeColor=#0F8B8D;fontColor=#143642;" parent="WIyWlLk6GJQsqaUBKTNV-1" vertex="1">
          <mxGeometry x="119" y="552" width="140" height="130" as="geometry" />
        </mxCell>
        <mxCell id="TZ29FF8xOcTStTQaKNd6-3" value="Clean data&lt;div&gt;&lt;br&gt;&lt;/div&gt;&lt;div style=&quot;text-align: left;&quot;&gt;&lt;br&gt;&lt;/div&gt;" style="rounded=0;whiteSpace=wrap;html=1;strokeColor=#0F8B8D;fontColor=#143642;fillColor=#FAE5C7;align=center;verticalAlign=top;fontStyle=5;fontSize=13;" parent="WIyWlLk6GJQsqaUBKTNV-1" vertex="1">
          <mxGeometry x="357" y="385" width="312" height="170" as="geometry" />
        </mxCell>
        <mxCell id="TZ29FF8xOcTStTQaKNd6-4" value="Transform data&lt;div&gt;&lt;br&gt;&lt;/div&gt;&lt;div&gt;&lt;br&gt;&lt;/div&gt;&lt;div style=&quot;text-align: left;&quot;&gt;&lt;br&gt;&lt;/div&gt;" style="rounded=0;whiteSpace=wrap;html=1;strokeColor=#0F8B8D;fontColor=#143642;fillColor=#FAE5C7;fontStyle=5;fontSize=13;verticalAlign=top;" parent="WIyWlLk6GJQsqaUBKTNV-1" vertex="1">
          <mxGeometry x="357" y="175" width="310" height="180" as="geometry" />
        </mxCell>
        <mxCell id="TZ29FF8xOcTStTQaKNd6-5" value="Yes" style="edgeStyle=orthogonalEdgeStyle;rounded=0;html=1;jettySize=auto;orthogonalLoop=1;fontSize=11;endArrow=block;endFill=0;endSize=8;strokeWidth=1;shadow=0;labelBackgroundColor=none;strokeColor=#A8201A;fontColor=default;" parent="WIyWlLk6GJQsqaUBKTNV-1" edge="1">
          <mxGeometry x="-0.1375" y="11" relative="1" as="geometry">
            <mxPoint as="offset" />
            <mxPoint x="259" y="436.65999999999997" as="sourcePoint" />
            <mxPoint x="356" y="437" as="targetPoint" />
          </mxGeometry>
        </mxCell>
        <mxCell id="eC1abkSf_XT489UFKqMr-19" value="" style="edgeStyle=none;curved=1;rounded=0;orthogonalLoop=1;jettySize=auto;html=1;strokeColor=#A8201A;fontSize=12;fontColor=#143642;startSize=8;endSize=8;fillColor=#FAE5C7;" edge="1" parent="WIyWlLk6GJQsqaUBKTNV-1" source="TZ29FF8xOcTStTQaKNd6-6" target="eC1abkSf_XT489UFKqMr-3">
          <mxGeometry relative="1" as="geometry" />
        </mxCell>
        <mxCell id="TZ29FF8xOcTStTQaKNd6-6" value="&lt;p style=&quot;line-height: 41%;&quot;&gt;&lt;font style=&quot;font-size: 13px;&quot;&gt;&lt;u&gt;&lt;b&gt;reduce data&lt;/b&gt;&lt;/u&gt;&lt;/font&gt;&lt;/p&gt;" style="rounded=0;whiteSpace=wrap;html=1;strokeColor=#0F8B8D;fontColor=#143642;fillColor=#FAE5C7;align=center;verticalAlign=top;" parent="WIyWlLk6GJQsqaUBKTNV-1" vertex="1">
          <mxGeometry x="357" y="585" width="313" height="220" as="geometry" />
        </mxCell>
        <mxCell id="TZ29FF8xOcTStTQaKNd6-7" value="Yes" style="edgeStyle=orthogonalEdgeStyle;rounded=0;html=1;jettySize=auto;orthogonalLoop=1;fontSize=11;endArrow=block;endFill=0;endSize=8;strokeWidth=1;shadow=0;labelBackgroundColor=none;strokeColor=#A8201A;fontColor=default;entryX=0;entryY=0.144;entryDx=0;entryDy=0;entryPerimeter=0;" parent="WIyWlLk6GJQsqaUBKTNV-1" edge="1" target="TZ29FF8xOcTStTQaKNd6-6">
          <mxGeometry x="-0.1901" y="9" relative="1" as="geometry">
            <mxPoint as="offset" />
            <mxPoint x="259" y="616.66" as="sourcePoint" />
            <mxPoint x="329" y="616.66" as="targetPoint" />
          </mxGeometry>
        </mxCell>
        <mxCell id="TZ29FF8xOcTStTQaKNd6-8" value="" style="endArrow=classic;html=1;rounded=0;strokeColor=#A8201A;fontColor=#143642;fillColor=#FAE5C7;exitX=0.5;exitY=1;exitDx=0;exitDy=0;" parent="WIyWlLk6GJQsqaUBKTNV-1" source="TZ29FF8xOcTStTQaKNd6-2" edge="1">
          <mxGeometry width="50" height="50" relative="1" as="geometry">
            <mxPoint x="179" y="712" as="sourcePoint" />
            <mxPoint x="189" y="732" as="targetPoint" />
          </mxGeometry>
        </mxCell>
        <mxCell id="TZ29FF8xOcTStTQaKNd6-10" value="" style="endArrow=classic;html=1;rounded=0;strokeColor=#A8201A;fontColor=#143642;fillColor=#FAE5C7;" parent="WIyWlLk6GJQsqaUBKTNV-1" edge="1">
          <mxGeometry width="50" height="50" relative="1" as="geometry">
            <mxPoint x="188.41" y="921" as="sourcePoint" />
            <mxPoint x="188.38" y="955" as="targetPoint" />
          </mxGeometry>
        </mxCell>
        <mxCell id="TZ29FF8xOcTStTQaKNd6-33" style="edgeStyle=orthogonalEdgeStyle;rounded=0;orthogonalLoop=1;jettySize=auto;html=1;strokeColor=#A8201A;fontColor=#143642;fillColor=#FAE5C7;endArrow=none;endFill=0;exitX=1;exitY=0.5;exitDx=0;exitDy=0;" parent="WIyWlLk6GJQsqaUBKTNV-1" source="eC1abkSf_XT489UFKqMr-10" edge="1">
          <mxGeometry relative="1" as="geometry">
            <mxPoint x="630" y="132" as="targetPoint" />
            <Array as="points">
              <mxPoint x="475" y="990" />
              <mxPoint x="700" y="990" />
              <mxPoint x="700" y="132" />
            </Array>
            <mxPoint x="476" y="990" as="sourcePoint" />
          </mxGeometry>
        </mxCell>
        <mxCell id="TZ29FF8xOcTStTQaKNd6-15" value="Data output" style="shape=parallelogram;perimeter=parallelogramPerimeter;whiteSpace=wrap;html=1;fixedSize=1;labelBackgroundColor=none;fillColor=#FAE5C7;strokeColor=#0F8B8D;fontColor=#143642;" parent="WIyWlLk6GJQsqaUBKTNV-1" vertex="1">
          <mxGeometry x="123.5" y="954" width="131" height="70" as="geometry" />
        </mxCell>
        <mxCell id="TZ29FF8xOcTStTQaKNd6-21" value="" style="endArrow=classic;html=1;rounded=0;strokeColor=#A8201A;fontColor=#143642;fillColor=#FAE5C7;exitX=0;exitY=0.75;exitDx=0;exitDy=0;entryX=1;entryY=0;entryDx=0;entryDy=0;" parent="WIyWlLk6GJQsqaUBKTNV-1" source="TZ29FF8xOcTStTQaKNd6-4" target="TZ29FF8xOcTStTQaKNd6-0" edge="1">
          <mxGeometry width="50" height="50" relative="1" as="geometry">
            <mxPoint x="450" y="392" as="sourcePoint" />
            <mxPoint x="500" y="342" as="targetPoint" />
          </mxGeometry>
        </mxCell>
        <mxCell id="TZ29FF8xOcTStTQaKNd6-22" value="" style="endArrow=classic;html=1;rounded=0;strokeColor=#A8201A;fontColor=#143642;fillColor=#FAE5C7;exitX=0;exitY=0.75;exitDx=0;exitDy=0;entryX=1;entryY=0;entryDx=0;entryDy=0;" parent="WIyWlLk6GJQsqaUBKTNV-1" source="TZ29FF8xOcTStTQaKNd6-3" target="TZ29FF8xOcTStTQaKNd6-2" edge="1">
          <mxGeometry width="50" height="50" relative="1" as="geometry">
            <mxPoint x="390" y="492" as="sourcePoint" />
            <mxPoint x="231" y="586" as="targetPoint" />
          </mxGeometry>
        </mxCell>
        <mxCell id="TZ29FF8xOcTStTQaKNd6-34" value="" style="endArrow=blockThin;html=1;rounded=0;strokeColor=#A8201A;fontColor=#143642;fillColor=#FAE5C7;entryX=1;entryY=0.5;entryDx=0;entryDy=0;curved=0;endFill=0;endSize=10;" parent="WIyWlLk6GJQsqaUBKTNV-1" target="KbSVwYgE71Qf3zuXXJ_C-0" edge="1">
          <mxGeometry width="50" height="50" relative="1" as="geometry">
            <mxPoint x="630" y="132" as="sourcePoint" />
            <mxPoint x="505" y="112" as="targetPoint" />
          </mxGeometry>
        </mxCell>
        <mxCell id="eC1abkSf_XT489UFKqMr-0" value="&lt;div&gt;• Convert data to an appropriate format&lt;/div&gt;&lt;div&gt;&lt;br&gt;&lt;/div&gt;• Give variables appropriate types&lt;div&gt;&lt;br&gt;&lt;/div&gt;&lt;div&gt;•&amp;nbsp;&lt;span style=&quot;background-color: initial;&quot;&gt;Standardize scales and units&lt;/span&gt;&lt;/div&gt;&lt;div&gt;&lt;span style=&quot;background-color: initial;&quot;&gt;&lt;br&gt;&lt;/span&gt;&lt;/div&gt;&lt;div&gt;&lt;span style=&quot;background-color: initial;&quot;&gt;• Fill in missing data where appropriate&lt;/span&gt;&lt;/div&gt;&lt;div&gt;&lt;span style=&quot;background-color: initial;&quot;&gt;&lt;br&gt;&lt;/span&gt;&lt;/div&gt;&lt;div&gt;• Normalize features for machine learning models&lt;/div&gt;&lt;div&gt;&lt;br&gt;&lt;/div&gt;" style="text;html=1;align=left;verticalAlign=top;whiteSpace=wrap;rounded=0;fontSize=12;" vertex="1" parent="WIyWlLk6GJQsqaUBKTNV-1">
          <mxGeometry x="367" y="205" width="271" height="143" as="geometry" />
        </mxCell>
        <mxCell id="eC1abkSf_XT489UFKqMr-2" value="&lt;div&gt;• Remove duplicated rows&amp;nbsp;&lt;/div&gt;&lt;div&gt;&lt;br&gt;&lt;/div&gt;• Remove rows with missing values where appropriate&amp;nbsp;&lt;div&gt;&lt;br&gt;&lt;/div&gt;&lt;div&gt;• Remove irrelevant columns&lt;/div&gt;&lt;div&gt;&lt;span style=&quot;background-color: initial;&quot;&gt;&lt;br&gt;&lt;/span&gt;&lt;/div&gt;&lt;div&gt;•&amp;nbsp; Remove rows based on exclusion criteria&lt;/div&gt;&lt;div&gt;&lt;span style=&quot;white-space: pre;&quot;&gt;&#x9;&lt;/span&gt;♦ sales person, product, country etc&lt;br&gt;&lt;/div&gt;&lt;div&gt;&lt;br&gt;&lt;/div&gt;" style="text;html=1;align=left;verticalAlign=top;whiteSpace=wrap;rounded=0;fontSize=12;" vertex="1" parent="WIyWlLk6GJQsqaUBKTNV-1">
          <mxGeometry x="367" y="415" width="298" height="130" as="geometry" />
        </mxCell>
        <mxCell id="eC1abkSf_XT489UFKqMr-5" value="" style="group" vertex="1" connectable="0" parent="WIyWlLk6GJQsqaUBKTNV-1">
          <mxGeometry x="71" y="732" width="257" height="189" as="geometry" />
        </mxCell>
        <mxCell id="eC1abkSf_XT489UFKqMr-3" value="&lt;div style=&quot;text-align: left;&quot;&gt;Analyze&amp;nbsp; data&lt;/div&gt;" style="rounded=0;whiteSpace=wrap;html=1;strokeColor=#0F8B8D;fontColor=#143642;fillColor=#FAE5C7;fontStyle=5;fontSize=13;verticalAlign=top;" vertex="1" parent="eC1abkSf_XT489UFKqMr-5">
          <mxGeometry width="250" height="189" as="geometry" />
        </mxCell>
        <mxCell id="eC1abkSf_XT489UFKqMr-4" value="&lt;div&gt;• Create new data that show:&lt;/div&gt;&lt;div&gt;&lt;span style=&quot;background-color: initial;&quot;&gt;&lt;br&gt;&lt;/span&gt;&lt;/div&gt;&lt;div&gt;&lt;span style=&quot;background-color: initial;&quot;&gt;&amp;nbsp; &amp;nbsp; ♦ Summary information&lt;/span&gt;&lt;br&gt;&lt;/div&gt;&lt;div&gt;&lt;br&gt;&lt;/div&gt;&amp;nbsp; &amp;nbsp; ♦ Clusters&lt;div&gt;&lt;br&gt;&lt;/div&gt;&lt;div&gt;&amp;nbsp; &amp;nbsp; ♦ Vizualizations (graphs, dashboards, etc)&lt;/div&gt;&lt;div&gt;&lt;span style=&quot;background-color: initial;&quot;&gt;&lt;br&gt;&lt;/span&gt;&lt;/div&gt;&lt;div&gt;&lt;span style=&quot;background-color: initial;&quot;&gt;&amp;nbsp; &amp;nbsp; ♦ Answers to business related questions&lt;/span&gt;&lt;/div&gt;&lt;div&gt;&lt;span style=&quot;background-color: initial;&quot;&gt;&lt;br&gt;&lt;/span&gt;&lt;/div&gt;&lt;div&gt;&lt;br&gt;&lt;/div&gt;&lt;div&gt;&lt;br&gt;&lt;/div&gt;" style="text;html=1;align=left;verticalAlign=top;whiteSpace=wrap;rounded=0;fontSize=12;" vertex="1" parent="eC1abkSf_XT489UFKqMr-5">
          <mxGeometry x="8.14" y="30.452957746478877" width="248.86" height="137.2512676056338" as="geometry" />
        </mxCell>
        <mxCell id="eC1abkSf_XT489UFKqMr-8" value="&lt;div&gt;• Use sampling techiniques where appropriate&lt;/div&gt;&lt;div&gt;&lt;br&gt;&lt;/div&gt;• Use techniques like correlation analysis&lt;div&gt;&amp;nbsp; &amp;nbsp;and Principal Component Analysis to identity&lt;div&gt;&amp;nbsp; &amp;nbsp;features that can be removed&amp;nbsp;&lt;div&gt;&lt;br&gt;&lt;/div&gt;&lt;div&gt;• Serialize/compress data where appropriate&lt;/div&gt;&lt;div&gt;&lt;span style=&quot;background-color: initial;&quot;&gt;&lt;br&gt;&lt;/span&gt;&lt;/div&gt;&lt;div&gt;•&amp;nbsp; Select features that are most appropriate for the&lt;/div&gt;&lt;div&gt;&amp;nbsp; &amp;nbsp;business areas that you want to gain insights into&lt;/div&gt;&lt;div&gt;&lt;br&gt;&lt;/div&gt;&lt;/div&gt;&lt;/div&gt;" style="text;html=1;align=left;verticalAlign=top;whiteSpace=wrap;rounded=0;fontSize=12;" vertex="1" parent="WIyWlLk6GJQsqaUBKTNV-1">
          <mxGeometry x="367" y="623" width="298" height="164" as="geometry" />
        </mxCell>
        <mxCell id="eC1abkSf_XT489UFKqMr-10" value="Does our data output need further processing?" style="rhombus;whiteSpace=wrap;html=1;shadow=0;fontFamily=Helvetica;fontSize=12;align=center;strokeWidth=1;spacing=6;spacingTop=-4;labelBackgroundColor=none;fillColor=#FAE5C7;strokeColor=#0F8B8D;fontColor=#143642;" vertex="1" parent="WIyWlLk6GJQsqaUBKTNV-1">
          <mxGeometry x="292" y="915.25" width="183" height="147.5" as="geometry" />
        </mxCell>
        <mxCell id="eC1abkSf_XT489UFKqMr-12" value="" style="endArrow=classic;html=1;rounded=0;strokeColor=#A8201A;fontColor=#143642;fillColor=#FAE5C7;exitX=1;exitY=0.5;exitDx=0;exitDy=0;entryX=0;entryY=0.5;entryDx=0;entryDy=0;" edge="1" parent="WIyWlLk6GJQsqaUBKTNV-1" source="TZ29FF8xOcTStTQaKNd6-15">
          <mxGeometry width="50" height="50" relative="1" as="geometry">
            <mxPoint x="241" y="1042" as="sourcePoint" />
            <mxPoint x="293" y="989" as="targetPoint" />
          </mxGeometry>
        </mxCell>
        <mxCell id="eC1abkSf_XT489UFKqMr-18" style="edgeStyle=none;curved=1;rounded=0;orthogonalLoop=1;jettySize=auto;html=1;exitX=0.5;exitY=1;exitDx=0;exitDy=0;strokeColor=#A8201A;fontSize=12;fontColor=#143642;startSize=8;endSize=8;fillColor=#FAE5C7;entryX=0.5;entryY=0;entryDx=0;entryDy=0;" edge="1" parent="WIyWlLk6GJQsqaUBKTNV-1" source="eC1abkSf_XT489UFKqMr-15" target="KbSVwYgE71Qf3zuXXJ_C-0">
          <mxGeometry relative="1" as="geometry">
            <mxPoint x="224" y="24.77777777777783" as="targetPoint" />
          </mxGeometry>
        </mxCell>
        <mxCell id="eC1abkSf_XT489UFKqMr-15" value="&lt;b&gt;&lt;font style=&quot;font-size: 14px;&quot;&gt;Start&lt;/font&gt;&lt;/b&gt;" style="rounded=1;whiteSpace=wrap;html=1;strokeColor=#0F8B8D;fontColor=#143642;fillColor=#FAE5C7;" vertex="1" parent="WIyWlLk6GJQsqaUBKTNV-1">
          <mxGeometry x="142.5" y="34" width="93" height="31" as="geometry" />
        </mxCell>
        <mxCell id="eC1abkSf_XT489UFKqMr-22" value="Yes" style="text;whiteSpace=wrap;html=1;fontColor=#143642;" vertex="1" parent="WIyWlLk6GJQsqaUBKTNV-1">
          <mxGeometry x="523" y="966" width="48" height="36" as="geometry" />
        </mxCell>
        <mxCell id="eC1abkSf_XT489UFKqMr-25" value="&lt;b&gt;&lt;font style=&quot;font-size: 14px;&quot;&gt;End&lt;/font&gt;&lt;/b&gt;" style="rounded=1;whiteSpace=wrap;html=1;strokeColor=#0F8B8D;fontColor=#143642;fillColor=#FAE5C7;" vertex="1" parent="WIyWlLk6GJQsqaUBKTNV-1">
          <mxGeometry x="337" y="1110" width="93" height="31" as="geometry" />
        </mxCell>
        <mxCell id="eC1abkSf_XT489UFKqMr-27" value="No" style="rounded=0;html=1;jettySize=auto;orthogonalLoop=1;fontSize=11;endArrow=block;endFill=0;endSize=8;strokeWidth=1;shadow=0;labelBackgroundColor=none;edgeStyle=orthogonalEdgeStyle;strokeColor=#A8201A;fontColor=default;" edge="1" parent="WIyWlLk6GJQsqaUBKTNV-1">
          <mxGeometry x="-0.2344" y="13" relative="1" as="geometry">
            <mxPoint as="offset" />
            <mxPoint x="383" y="1063" as="sourcePoint" />
            <mxPoint x="382.97" y="1110" as="targetPoint" />
          </mxGeometry>
        </mxCell>
      </root>
    </mxGraphModel>
  </diagram>
</mxfile>
